HIERARCHY
ROOT Hips
{
  OFFSET -32.5998 29.0326 120.673
  CHANNELS 6 Xposition Yposition Zposition Zrotation Xrotation Yrotation
  JOINT LeftUpLeg
  {
    OFFSET 8.64259 1.95398 -2.38835
    CHANNELS 3 Zrotation Xrotation Yrotation
    JOINT LeftLeg
    {
      OFFSET 43.7702 0 0
      CHANNELS 3 Zrotation Xrotation Yrotation
      JOINT LeftFoot
      {
        OFFSET 40.6238 0 0
        CHANNELS 3 Zrotation Xrotation Yrotation
        JOINT LeftToeBase
        {
          OFFSET 12.7242 0 0
          CHANNELS 3 Zrotation Xrotation Yrotation
          End Site
          {
            OFFSET 0 0 0
          }
        }
      }
    }
  }
  JOINT RightUpLeg
  {
    OFFSET -8.2249 1.95398 -2.59336
    CHANNELS 3 Zrotation Xrotation Yrotation
    JOINT RightLeg
    {
      OFFSET 43.5653 0 0
      CHANNELS 3 Zrotation Xrotation Yrotation
      JOINT RightFoot
      {
        OFFSET 40.6238 0 0
        CHANNELS 3 Zrotation Xrotation Yrotation
        JOINT RightToeBase
        {
          OFFSET 12.7242 0 0
          CHANNELS 3 Zrotation Xrotation Yrotation
          End Site
          {
            OFFSET 0 0 0
          }
        }
      }
    }
  }
  JOINT Spine
  {
    OFFSET 0.165834 0.87714 6.61349
    CHANNELS 3 Zrotation Xrotation Yrotation
    JOINT Spine1
    {
      OFFSET 7.38963 1.71661e-005 0
      CHANNELS 3 Zrotation Xrotation Yrotation
      JOINT Spine2
      {
        OFFSET 11.9445 1.14441e-005 0
        CHANNELS 3 Zrotation Xrotation Yrotation
        JOINT Spine3
        {
          OFFSET 14.7254 4.19617e-005 0
          CHANNELS 3 Zrotation Xrotation Yrotation
          JOINT Spine4
          {
            OFFSET 10.9679 0 0
            CHANNELS 3 Zrotation Xrotation Yrotation
            JOINT RightShoulder
            {
              OFFSET 2.46616 -1.6653 3.69651
              CHANNELS 3 Zrotation Xrotation Yrotation
              JOINT RightArm
              {
                OFFSET 13.0012 0 0
                CHANNELS 3 Zrotation Xrotation Yrotation
                JOINT RightForeArm
                {
                  OFFSET 28.7848 1.62311e-005 0
                  CHANNELS 3 Zrotation Xrotation Yrotation
                  JOINT RightHand
                  {
                    OFFSET 26.5688 1.62095e-005 0
                    CHANNELS 3 Zrotation Xrotation Yrotation
                    End Site
                    {
                      OFFSET 0 0 0
                    }
                  }
                }
              }
            }
            JOINT LeftShoulder
            {
              OFFSET 2.38034 -1.29275 -3.7523
              CHANNELS 3 Zrotation Xrotation Yrotation
              JOINT LeftArm
              {
                OFFSET 16.3182 6.07031e-005 0
                CHANNELS 3 Zrotation Xrotation Yrotation
                JOINT LeftForeArm
                {
                  OFFSET 27.0901 0 0
                  CHANNELS 3 Zrotation Xrotation Yrotation
                  JOINT LeftHand
                  {
                    OFFSET 24.5451 1.51738e-005 0
                    CHANNELS 3 Zrotation Xrotation Yrotation
                    End Site
                    {
                      OFFSET 0 0 0
                    }
                  }
                }
              }
            }
            JOINT Neck
            {
              OFFSET 5.0226 -0.0266342 0
              CHANNELS 3 Zrotation Xrotation Yrotation
              JOINT Head
              {
                OFFSET 6.69364 2.86102e-005 0
                CHANNELS 3 Zrotation Xrotation Yrotation
                End Site
                {
                  OFFSET 0 0 0
                }
              }
            }
          }
        }
      }
    }
  }
}
MOTION
Frames:	12
Frame Time:	0.0416667
-93.6331 91.5698 38.6828 89.1479 -44.4211 85.6624 -166.012 21.0114 112.252 -34.0157 8.04927 -0.87532 61.8807 1.13388 -1.78304 22.3143 -8.67795 11.8692 164.17 30.373 71.2321 -47.0754 -21.6011 1.54673 71.8628 -7.69797 -0.279188 34.5482 -2.59718 0.121629 0.319278 8.2665 -90.1077 10.3416 0.586842 -0.264953 -1.32924 0.574593 -0.290536 -23.8654 0.639335 -0.0763262 -3.85278 0.63933 -0.0763394 94.581 -21.8258 -99.8854 41.2056 -6.36828 4.63205 -16.7932 -7.30558 -36.3348 -11.2094 -0.144457 -3.82818 -83.6203 -43.8304 87.6235 -27.775 13.9775 3.73675 9.89982 -6.65651 -33.7129 -0.558028 -0.0682213 -2.96256 -17.3574 18.3046 15.2184 -14.5974 17.7768 10.2785 
-87.9283 89.6609 31.8752 89.5423 -41.6117 88.782 -162.907 25.815 112.306 -43.463 8.16767 -2.89807 71.3923 6.12488 -5.3218 36.1842 -3.18805 17.7465 164.052 29.1637 68.1358 -43.3713 -20.7822 1.04101 67.2701 -4.21455 1.25479 37.2405 -3.54283 -1.3773 0.415085 8.30031 -90.3932 10.2747 0.647405 -0.836565 -1.39634 0.609951 -0.864256 -23.9315 0.868877 -0.603321 -3.91882 0.868881 -0.603331 94.6356 -22.2199 -99.6385 38.8187 -3.80288 1.50189 -18.0737 -7.31036 -38.5938 -9.90757 -0.081562 -4.4237 -83.2902 -42.7676 88.0365 -30.8124 15.467 6.44804 10.7738 -5.39874 -32.7972 -1.75205 -0.0874441 -3.49715 -16.7336 17.4425 10.8582 -16.2023 16.5085 11.5802 
-81.0183 90.4454 24.0187 91.4161 -35.2753 91.1148 -161.646 27.3885 107.518 -50.1801 11.7503 -4.29044 80.5781 12.1439 -3.55296 29.2721 -4.77575 11.8799 165.783 23.3393 64.1703 -36.7151 -19.8311 -2.92814 57.5675 2.2952 1.86037 29.5911 -0.310373 -0.603089 0.255725 8.39762 -90.5171 10.0788 0.274159 -1.0498 -1.59256 0.22768 -1.06086 -24.1252 0.576966 -0.91889 -4.11252 0.576982 -0.91889 95.7555 -23.0489 -96.8265 36.943 0.937048 1.21463 -20.8471 -8.07179 -44.0742 -9.32335 -0.099514 -4.15205 -83.9312 -40.6476 86.6937 -32.4092 19.1549 6.83075 10.7028 -4.42445 -29.182 -1.92818 -0.0831901 -2.47439 -17.0953 14.749 3.69951 -15.808 13.6388 12.9218 
-75.0417 91.8313 16.3883 92.0499 -30.6256 91.1561 -162.524 24.5488 100.621 -50.9871 11.3185 -4.7796 84.983 14.7764 -3.95688 25.6409 -6.63532 11.5548 171.029 22.9633 63.7496 -43.4437 -21.0377 -8.22606 62.6904 -1.03546 -1.095 15.9392 4.94208 2.7056 0.165448 8.4426 -90.4655 9.98836 0.118219 -0.933912 -1.68292 0.0770255 -0.938219 -24.2158 0.393404 -0.855221 -4.20316 0.393431 -0.855219 96.3167 -22.8531 -95.5989 37.0318 1.30674 3.9382 -21.9767 -9.15225 -45.0447 -10.2902 -0.13551 -3.80443 -84.798 -40.806 85.2582 -26.72 25.4801 2.31452 8.47287 -6.43863 -23.2597 -2.70515 -0.0964427 -2.69401 -18.8854 12.2522 1.56749 -14.4796 11.4386 11.3184 
-70.8326 93.7672 10.4586 92.5935 -29.6016 91.1222 -164.341 19.7754 95.1295 -46.9248 7.39587 -5.32046 85.7993 15.4295 -2.98092 21.3718 -7.81312 9.23415 173.536 27.6164 69.3171 -49.2141 -14.7392 -6.3743 67.7968 -4.18659 -1.29892 17.3574 4.14074 3.13031 0.00438214 8.67058 -90.3543 9.53174 -0.150919 -0.690862 -2.13938 -0.181161 -0.683556 -24.6731 0.0637074 -0.704279 -4.66041 0.0636961 -0.704269 96.4094 -22.3436 -95.5106 38.8852 -2.77183 4.94864 -20.6448 -10.4157 -40.1285 -9.35846 -0.0625417 -4.6315 -84.6731 -40.343 85.397 -24.3219 18.9513 -1.2538 8.2558 -8.23899 -22.7693 0.793444 -0.0296974 -2.16919 -19.4765 11.7314 3.20341 -13.6953 11.1845 9.71644 
-67.2545 96.0684 6.14879 91.1804 -30.2384 91.1485 -166.732 15.8867 91.4613 -39.8014 2.95874 -5.79679 84.4439 14.5959 -1.95201 17.5647 -9.29514 8.13582 177.478 33.1003 80.6884 -51.1834 -15.8578 -4.48125 67.9357 -4.27829 -1.80028 20.2122 2.50254 4.27577 -0.185623 8.67071 -90.3027 9.53081 -0.506485 -0.561533 -2.14015 -0.530722 -0.538705 -24.6746 -0.314312 -0.687787 -4.66195 -0.314316 -0.68779 96.4865 -22.2448 -95.3563 41.2407 -5.14039 6.91845 -18.734 -10.6598 -36.1104 -9.73424 -0.0847908 -4.3702 -84.7502 -39.2827 85.0992 -23.941 14.3433 -4.23794 7.90586 -9.61775 -25.6065 -0.562583 -0.0870488 -4.12028 -20.4873 12.1283 3.17917 -14.442 11.4764 10.7526 
-63.1885 97.0396 2.6861 89.9801 -28.5213 90.2255 -168.483 12.3388 87.9911 -34.2977 2.21431 -6.68692 83.6874 14.0692 -1.36262 15.511 -10.3691 8.00648 179.599 36.86 91.483 -48.5752 -18.9089 -2.4858 66.2121 -2.89177 -1.28057 20.395 3.00512 2.60542 -0.814737 8.64932 -90.147 9.57449 -1.69066 -0.161602 -2.09539 -1.69612 -0.0870229 -24.6381 -1.5639 -0.662359 -4.62541 -1.56391 -0.662357 97.1018 -21.556 -94.081 44.5341 -5.88149 8.94697 -17.1369 -10.6319 -32.9184 -10.8554 -0.114884 -4.11708 -84.9888 -38.4036 84.5427 -22.7393 10.1174 -6.2656 9.2573 -7.85424 -33.0779 -0.653252 -0.0973793 -4.80979 -20.8929 12.7003 2.97893 -14.6266 11.9055 12.3091 
-58.3958 96.3554 -0.723069 89.3677 -24.3295 88.0668 -169.639 9.3552 83.8334 -32.3021 4.31657 -8.05498 85.4121 15.4071 -0.673783 10.8818 -10.7006 4.53363 176.224 36.6915 99.3964 -40.2102 -12.7935 2.76897 62.572 0.430337 3.26478 27.2997 1.41708 -2.9469 -1.50471 8.62632 -89.9792 9.62691 -2.99036 0.272855 -2.04067 -2.97547 0.404307 -24.6025 -2.934 -0.639277 -4.58989 -2.93399 -0.639275 98.3115 -21.375 -91.2659 46.8831 -4.73155 11.8755 -14.8743 -8.2301 -29.8223 -10.4272 -0.0704799 -4.59873 -85.4418 -37.8721 83.6617 -20.7109 7.69326 -12.3948 10.6985 -6.36893 -36.7468 -1.44694 -0.0935201 -5.42284 -20.2441 12.6334 2.39511 -15.4692 11.6163 13.118 
-52.3778 93.8515 -4.25188 89.4531 -20.8023 86.6486 -169.51 6.27275 80.5334 -34.4092 7.02236 -10.2214 91.1553 18.9861 -1.46104 8.27504 -10.8129 2.59682 173.262 31.8149 104.643 -27.7549 -2.34417 7.64236 63.7297 -0.642788 0.645374 28.5376 -0.51129 2.51534 -1.86264 8.56984 -89.8946 9.74558 -3.66549 0.498673 -1.92037 -3.63997 0.659722 -24.4965 -3.64567 -0.627522 -4.48381 -3.64568 -0.627519 98.9567 -21.336 -89.7431 49.1917 -3.72937 14.6107 -13.5281 -8.36559 -25.9125 -10.7219 -0.111864 -4.13557 -85.9113 -37.3755 82.7468 -18.271 7.29438 -20.7695 12.2153 -4.58761 -38.2061 -1.21372 -0.10162 -5.46711 -20.5272 11.9882 0.603729 -15.8783 10.8034 13.5625 
-45.6313 91.5424 -8.55618 88.3157 -16.9896 85.9887 -171.198 1.92751 76.579 -32.8939 6.29437 -10.1924 95.9958 20.6838 -5.10642 4.64976 -11.5267 0.939964 174.326 32.5308 105.198 -27.4791 1.7477 7.52362 63.8873 -0.114773 2.50077 28.372 -0.434575 2.53047 -2.19636 8.38955 -90.1064 10.107 -4.42512 0.1611 -1.55644 -4.41374 0.356073 -24.1494 -4.2686 -1.17877 -4.13679 -4.26861 -1.17878 99.4007 -21.3043 -88.6926 50.1122 -4.32321 14.4847 -12.7389 -8.33337 -23.9675 -10.9827 -0.131811 -3.94906 -86.502 -37.6312 81.7633 -14.375 10.1361 -28.7335 13.2426 -3.36893 -37.0707 -2.01822 -0.0936816 -5.74121 -19.4302 11.3638 -0.65576 -16.9624 9.92236 14.0228 
-36.9882 91.102 -14.2308 87.1103 -15.038 88.5698 -172.691 -2.2182 75.1543 -30.0632 7.42956 -9.70494 88.8723 17.2383 -2.35317 7.16396 -7.58837 -3.57463 175.391 33.7998 105.44 -34.3939 -3.15905 6.0144 68.7339 -3.33494 -0.985807 17.1336 3.31903 5.43192 -2.18579 8.34214 -91.0221 10.1687 -4.82237 -1.62678 -1.49381 -4.88931 -1.41253 -24.0776 -4.11021 -3.00254 -4.06497 -4.11021 -3.00255 99.4868 -20.3451 -88.6112 47.6275 -2.25948 12.2434 -14.1295 -8.44133 -26.2968 -11.2904 -0.17577 -3.50842 -87.136 -37.291 80.583 -12.109 17.2948 -36.6115 10.897 -4.85744 -30.7731 -3.36494 -0.0674308 -7.02375 -18.44 10.2995 0.967604 -17.6396 8.77323 14.0417 
-28.8098 92.1595 -18.882 88.5448 -15.0616 90.2254 -166.335 0.0880807 81.0139 -35.9966 21.3615 -12.1342 69.3349 4.08334 -6.0303 33.2954 -1.86715 11.461 176.403 32.8774 104.614 -43.3866 -3.25441 3.63505 73.3504 -6.61142 -3.72007 11.8375 4.73851 7.59335 -1.83545 8.35949 -91.3849 10.1047 -4.28832 -2.39003 -1.56102 -4.3893 -2.19878 -24.1168 -3.37211 -3.56859 -4.10413 -3.37212 -3.56861 99.3504 -20.8445 -88.8718 46.3323 -2.35719 9.93297 -14.0263 -7.46418 -26.8109 -11.8994 -0.0914382 -4.43841 -87.0131 -36.8122 80.6938 -5.68588 28.4581 -41.7572 9.82523 -4.62021 -29.0636 -4.37006 -0.0392092 -7.38103 -21.9401 9.5549 1.70126 -17.161 8.53824 11.1136 
